# xmcd
#
# Track frame offsets:
#	183
#	14998
#	27753
#	44715
#	58325
#	71575
#	86173
#	102090
#	122000
#	140225
#	159303
#	171690
#	183478
#	196368
#	210908
#	221740
#	238788
#	250528
#
# Disc length: 3511 seconds
#
# Revision: 1
# Processed by: cddbd v1.5.1PL0 Copyright (c) Steve Scherf et al.
# Submitted via: EasyCDDAExtractor 6.5.7.1
#
DISCID=160db512
DTITLE=Various Artist - Galpão Gaúcho V2
DYEAR=2000
DGENRE=Country
TTITLE0=Tchê Guri - Não Vá
TTITLE1=Grupo Minuano - Buenas, Amigos
TTITLE2=Grupo Minuano - Gritos de Gaitero
TTITLE3=Sidney Almeida - Duas Cordeonas
TTITLE4=Grupo Estampa - Touro da Mariana
TTITLE5=Francisco Vargas - Coice e Relincho
TTITLE6=Grupo Quero-Quero - Os Bonitão
TTITLE7=Mano Lima - Veterinária Campeira
TTITLE8=Os Tiranos - Bailando o Chamame
TTITLE9=Pedro Ortaça - Lá no Baile dos três Nó
TTITLE10=Iedo Silva - Trago, Cantiga e Mulher
TTITLE11=Os Farrapos - Chora Gaita
TTITLE12=Grupo Liberdade - Clarinadas
TTITLE13=Leonardo - O Analista de perto de Bagé
TTITLE14=Os Maragatos - Charla de Galpão
TTITLE15=Odilon Ramos - Quando este gaiteiro Toca
TTITLE16=Gauchito Bruno - Resposta da Panela Velha
TTITLE17=Sinuelo da Serra - Matando o Fiasco a Tapa
EXTD=
EXTT0=
EXTT1=
EXTT2=
EXTT3=
EXTT4=
EXTT5=
EXTT6=
EXTT7=
EXTT8=
EXTT9=
EXTT10=
EXTT11=
EXTT12=
EXTT13=
EXTT14=
EXTT15=
EXTT16=
EXTT17=
PLAYORDER=
